<svg xmlns="http://www.w3.org/2000/svg" viewBox="0 0 1095.84 137.89"><defs><style>.cls-1{fill:#fbc017;}.cls-2{fill:#07000a;}</style></defs><g id="Layer_2" data-name="Layer 2"><g id="Layer_1-2" data-name="Layer 1"><path class="cls-1" d="M617.91,137.89h-144a13.15,13.15,0,0,0,.3-1.95c.1-36,22.55-63.64,57.87-71.88,14.06-3.28,28-1.05,41.28,4.06,11.19,4.3,20.46,11.62,28.09,20.79C613.25,103.06,618.44,119.55,617.91,137.89Z"/><path class="cls-2" d="M0,129.9l442.75,0h4.49c2.28,0,4.51-.4,6.06,2.2s-.84,3.92-1.37,5.82H8C0,137.89,0,137.89,0,129.9Z"/><path class="cls-2" d="M638.9,137.89c-.38-6,.44-6.91,6.52-7,7.66-.07,15.33,0,23,0h427.43c0,7,0,7-7,7Z"/><path class="cls-2" d="M617.91,137.89c.53-18.34-4.66-34.83-16.44-49-7.63-9.17-16.9-16.49-28.09-20.79-13.3-5.11-27.22-7.34-41.28-4.06-35.32,8.24-57.77,35.89-57.87,71.88a13.15,13.15,0,0,1-.3,1.95h-8c-.39-20.5,5.4-39,18.81-54.65Q511.16,52.4,552,54.7c33.89,1.94,64.61,27.65,72.33,62.41a76,76,0,0,1,1.58,20.78Z"/><path class="cls-2" d="M502.27,50.32a4.23,4.23,0,0,1-3,4.28c-2.46.84-3.8-1.11-4.76-2.69-3.68-6.06-7.12-12.27-10.65-18.42-2-3.44-3.93-6.9-6-10.28-1.42-2.32-.69-4.09,1.26-5.48a3.42,3.42,0,0,1,5.22.93c6,10.05,11.76,20.23,17.59,30.38A4.53,4.53,0,0,1,502.27,50.32Z"/><path class="cls-2" d="M663.75,69.35a6,6,0,0,1-3,4.29c-9.33,5.4-18.71,10.69-28,16.14-2.42,1.41-4.49,1.43-6-.9-1.79-2.71-.36-4.7,2.07-6.11,9.31-5.4,18.65-10.76,28-16.17,1.72-1,3.52-1.32,5.09-.13C662.76,67.2,663.24,68.57,663.75,69.35Z"/><path class="cls-2" d="M466.84,85.27c.2,3.13-3.21,5.5-5.85,4-9.95-5.62-19.8-11.41-29.64-17.22-1.77-1-3-2.57-1.78-4.89s3.41-3.12,5.48-2c10.11,5.66,20.12,11.52,30.1,17.42A3.14,3.14,0,0,1,466.84,85.27Z"/><path class="cls-2" d="M594.67,55c-3.1-.14-4.76-3.21-3.07-6.19C597,39.33,602.54,29.92,608,20.45c1.36-2.35,3.34-3.53,5.77-2.21,2.74,1.5,2.5,3.86,1,6.39-5.35,9.13-10.61,18.31-15.9,27.47C597.94,53.75,596.85,55.16,594.67,55Z"/><path class="cls-2" d="M542.78,20.85c0-5.32,0-10.65,0-16,0-2.57.72-4.83,3.75-4.88s4.32,1.92,4.32,4.87c0,10.64,0,21.29,0,31.94,0,2.79-.91,5-4.12,5.11-3.37.06-4-2.33-4-5.09,0-5.33,0-10.65,0-16Z"/></g></g></svg>