<svg xmlns="http://www.w3.org/2000/svg" viewBox="0 0 384 384.01"><defs><style>.cls-1{fill:#fdfefd;}.cls-2{fill:#4cae50;}.cls-3{fill:#4daf51;}</style></defs><title>Asset 1</title><g id="Layer_2" data-name="Layer 2"><g id="Layer_1-2" data-name="Layer 1"><circle class="cls-1" cx="192" cy="192.01" r="150.23"/><path class="cls-2" d="M0,207.76v-31.5c1.06-.48.7-1.49.79-2.29.85-7.7,2-15.34,3.61-22.93C22.35,66.6,97.47,3.33,183.75.15c38-1.4,73.78,7,106.3,26.89q77,47.14,91.84,136.51c.74,4.48.51,9.11,2.11,13.45v30c-.87.41-.68,1.24-.75,1.95-3.86,41.31-19.18,77.82-46.51,109q-46.56,53.14-116.63,64c-4.62.71-9.37.54-13.86,2.06h-30c-3.2-1.59-6.73-1.19-10.1-1.68-42-6.07-78.4-23.67-108.64-53.45Q11.89,284,2.09,220.46C1.43,216.22,1.72,211.82,0,207.76ZM98.56,288.3c11.54-3.62,23.1-7.17,34.59-10.92a6.78,6.78,0,0,1,6.26.75c20.74,12.5,43.13,17.32,67.16,13.77,55.64-8.22,93.76-59.54,85.35-114.81a100.83,100.83,0,0,0-114.81-85c-71.61,10.67-109.16,91.31-71,152.81,3,4.86,3.61,8.65,1.62,13.94A278.4,278.4,0,0,0,98.19,288l-.26.46Z"/><path class="cls-3" d="M223,248.87c-8.48-.4-16.45-3.3-23.86-7.56-26-14.95-46.35-35.35-59.31-62.62-3.23-6.79-5.37-14-4.2-21.75a10.12,10.12,0,0,1,1.08-3.94,53.89,53.89,0,0,1,16.47-16.54c3.89-2.43,8.41-1.46,11.81,1.71,5.65,5.29,11.2,10.71,16.46,16.39s3.31,13.47-3.61,16.81c-7.69,3.7-9.71,8.59-6.14,16.4a48.51,48.51,0,0,0,25.39,24.82c6.63,2.91,12,.56,15.11-6,3.86-8.14,11.8-9.62,18.23-3.32q7.23,7.08,14.3,14.32c5.27,5.42,5.24,11.82,0,17.24-2.87,3-5.9,5.76-8.72,8.77C232.52,247.36,228.15,248.73,223,248.87Z"/></g></g></svg>