<svg xmlns="http://www.w3.org/2000/svg" xmlns:xlink="http://www.w3.org/1999/xlink" viewBox="0 0 70 37.81"><defs><style>.cls-1{fill:url(#linear-gradient);}.cls-2{fill:url(#linear-gradient-2);}.cls-3{fill:url(#linear-gradient-3);}.cls-4{fill:url(#linear-gradient-4);}.cls-5{fill:url(#linear-gradient-5);}.cls-6{fill:url(#linear-gradient-6);}.cls-7{fill:url(#radial-gradient);}.cls-8{fill:url(#radial-gradient-2);}.cls-9{fill:url(#radial-gradient-3);}.cls-10{fill:url(#radial-gradient-4);}.cls-11{fill:url(#radial-gradient-5);}</style><linearGradient id="linear-gradient" x1="6.8" y1="16.43" x2="62.94" y2="16.43" gradientUnits="userSpaceOnUse"><stop offset="0" stop-color="#4f3b11"/><stop offset="0.06" stop-color="#7d5a1b"/><stop offset="0.12" stop-color="#ca922a"/><stop offset="0.22" stop-color="#fdda52"/><stop offset="0.33" stop-color="#ca922a"/><stop offset="0.49" stop-color="#b07b1b"/><stop offset="0.67" stop-color="#ca922a"/><stop offset="0.82" stop-color="#fcd951"/><stop offset="0.89" stop-color="#ca922a"/><stop offset="0.95" stop-color="#8f671e"/><stop offset="1" stop-color="#5e4313"/></linearGradient><linearGradient id="linear-gradient-2" x1="9.01" y1="32.74" x2="61.08" y2="32.74" gradientUnits="userSpaceOnUse"><stop offset="0" stop-color="#4f3b11"/><stop offset="0.06" stop-color="#7d5a1b"/><stop offset="0.12" stop-color="#ca922a"/><stop offset="0.19" stop-color="#fdda52"/><stop offset="0.31" stop-color="#ca922a"/><stop offset="0.49" stop-color="#b07b1b"/><stop offset="0.69" stop-color="#ca922a"/><stop offset="0.84" stop-color="#fcd951"/><stop offset="0.89" stop-color="#ca922a"/><stop offset="0.94" stop-color="#8f671e"/><stop offset="0.99" stop-color="#5e4313"/></linearGradient><linearGradient id="linear-gradient-3" x1="9.01" y1="30.37" x2="60.99" y2="30.37" gradientUnits="userSpaceOnUse"><stop offset="0.14" stop-color="#e8b127"/><stop offset="0.27" stop-color="#fdda52"/><stop offset="0.36" stop-color="#dba51c"/><stop offset="0.49" stop-color="#c78b1f"/><stop offset="0.64" stop-color="#e0a22f"/><stop offset="0.76" stop-color="#fcdb5b"/><stop offset="0.89" stop-color="#e6a930"/></linearGradient><linearGradient id="linear-gradient-4" x1="35" y1="38.26" x2="35" y2="35.19" gradientUnits="userSpaceOnUse"><stop offset="0.26" stop-color="#a67822"/><stop offset="1" stop-color="#664a16"/></linearGradient><linearGradient id="linear-gradient-5" x1="8.94" y1="35.09" x2="61.06" y2="35.09" xlink:href="#linear-gradient-3"/><linearGradient id="linear-gradient-6" x1="2.48" y1="10.89" x2="67.52" y2="10.89" xlink:href="#linear-gradient-3"/><radialGradient id="radial-gradient" cx="2.35" cy="16.01" r="3.76" gradientUnits="userSpaceOnUse"><stop offset="0" stop-color="#f2d866"/><stop offset="0.4" stop-color="#ba8023"/><stop offset="1" stop-color="#664a16"/></radialGradient><radialGradient id="radial-gradient-2" cx="14.64" cy="9.63" r="3.76" xlink:href="#radial-gradient"/><radialGradient id="radial-gradient-3" cx="34.02" cy="2" r="3.76" xlink:href="#radial-gradient"/><radialGradient id="radial-gradient-4" cx="65.69" cy="16.01" r="3.76" xlink:href="#radial-gradient"/><radialGradient id="radial-gradient-5" cx="53.39" cy="9.63" r="3.76" xlink:href="#radial-gradient"/></defs><g id="Layer_2" data-name="Layer 2"><g id="objects"><path class="cls-1" d="M67.34,16.37,61,31a222.77,222.77,0,0,0-26-1.61A222.77,222.77,0,0,0,9,31L2.66,16.37s5.88,6,10.43,4.8S16.14,12,16.14,12s4.81,7.29,10.73,5.3c4.39-1.48,6.49-5.41,8.13-15.46,1.64,10.05,3.74,14,8.13,15.46,5.92,2,10.73-5.3,10.73-5.3s-1.5,8,3,9.13S67.34,16.37,67.34,16.37Z"/><path class="cls-2" d="M61,31.38v4.74H9V31.38s4.82-1.95,26-2S61,31.38,61,31.38Z"/><path class="cls-3" d="M61,31v.76S53.14,30,35,30,9,31.74,9,31.74V31c6-1.86,26-2,26-2S55,29.12,61,31Z"/><path class="cls-4" d="M61,36.12s-9.2,1.69-26,1.69S9,36.12,9,36.12s9.2-1.7,26-1.7S61,36.12,61,36.12Z"/><path class="cls-5" d="M9,36.12c1.06-.23,2.14-.41,3.21-.57l1.62-.23.81-.1.81-.1q3.24-.39,6.49-.61c4.35-.31,8.7-.45,13.05-.45s8.7.14,13,.44q3.26.24,6.49.61l.81.11.81.1,1.62.23c1.07.16,2.15.34,3.21.57-.54-.08-1.08-.14-1.62-.2l-1.62-.17-3.24-.28c-2.17-.16-4.33-.29-6.5-.39q-6.49-.3-13-.29t-13,.29c-2.17.1-4.33.23-6.5.39l-3.24.28-1.62.17C10.09,36,9.55,36,9,36.12Z"/><path class="cls-6" d="M2.66,16.37l.51.48.53.46c.35.3.72.59,1.09.88a21.41,21.41,0,0,0,2.33,1.55,12.54,12.54,0,0,0,2.54,1.13L10,21l.17.05.17,0,.34.07.34.05.35,0h1a5,5,0,0,0,.67-.13,3.81,3.81,0,0,0,.64-.24,3.42,3.42,0,0,0,1.08-.8,4.75,4.75,0,0,0,.74-1.14A6.7,6.7,0,0,0,16,17.58a10.14,10.14,0,0,0,.21-1.36,12.93,12.93,0,0,0,.06-1.39c0-.46,0-.92-.07-1.39,0-.23,0-.46-.07-.69s0-.23,0-.34L16,12.07l-.15-.81.47.68.13.2.15.19c.09.13.19.26.29.38s.41.5.63.74a14.55,14.55,0,0,0,1.36,1.36A13.17,13.17,0,0,0,20.37,16a10.47,10.47,0,0,0,1.68.91,7.84,7.84,0,0,0,1.82.51,6.58,6.58,0,0,0,1.88,0,5.61,5.61,0,0,0,.92-.22l.11,0,.12,0,.22-.09.22-.08.22-.09a8.69,8.69,0,0,0,1.64-1l.09-.07.09-.08.18-.15.05,0,0,0,.09-.08.17-.16.17-.17.08-.08,0,0,0,0,.16-.18.08-.09.07-.09A10.38,10.38,0,0,0,31.61,13a18.48,18.48,0,0,0,.83-1.74c.24-.6.45-1.21.64-1.82L33.22,9l.14-.47.06-.23L33.49,8l.12-.47.11-.47.06-.23.06-.24L34,6.14l.1-.48c.27-1.27.5-2.54.71-3.82L35,.36l.24,1.48c.21,1.28.44,2.55.71,3.82l.1.48.11.47.06.24.06.23.11.47.12.47.07.24.06.23c0,.15.09.31.14.47l.14.46c.19.61.4,1.22.64,1.82A18.48,18.48,0,0,0,38.39,13a11.18,11.18,0,0,0,1.06,1.58l.07.09.08.09.16.18,0,0,0,0,.08.08.17.17.17.16.09.08,0,0,0,0,.18.15.09.08.09.07a8.14,8.14,0,0,0,1.64.95l.22.1.22.08.22.08.12,0,.11,0a5.61,5.61,0,0,0,.92.22,6.58,6.58,0,0,0,1.88,0A7.84,7.84,0,0,0,48,16.9,10.47,10.47,0,0,0,49.63,16a13.17,13.17,0,0,0,1.52-1.18,14.55,14.55,0,0,0,1.36-1.36c.22-.24.43-.49.63-.74s.2-.25.29-.38l.15-.19.13-.2.47-.69-.15.82-.06.34c0,.11,0,.23,0,.34s-.05.46-.07.69c0,.47-.07.93-.07,1.39a12.93,12.93,0,0,0,.06,1.39,10.39,10.39,0,0,0,.21,1.36,6.7,6.7,0,0,0,.43,1.31A4.75,4.75,0,0,0,55.22,20a3.53,3.53,0,0,0,1.08.8,3.81,3.81,0,0,0,.64.24,3.76,3.76,0,0,0,.67.12l.17,0h.86l.35,0,.34-.06.34-.07.17,0L60,21l.33-.1a12.54,12.54,0,0,0,2.54-1.13,21.41,21.41,0,0,0,2.33-1.55c.37-.29.74-.58,1.09-.88l.53-.46.51-.48c-.32.33-.67.65-1,1s-.7.61-1.07.9-.74.58-1.13.84-.78.53-1.18.77l-.61.34c-.21.12-.42.22-.63.32l-.32.15-.33.14-.33.13-.16,0-.17.06-.34.11-.17,0-.17.05-.35.07c-.11,0-.23.05-.35.06l-.35,0-.18,0h-.71l-.18,0a4.39,4.39,0,0,1-.71-.12A4.23,4.23,0,0,1,56.2,21,3.59,3.59,0,0,1,55,20.19a4.78,4.78,0,0,1-.8-1.19,7.2,7.2,0,0,1-.47-1.35,9.5,9.5,0,0,1-.23-1.4c0-.47-.07-.95-.08-1.42s0-.94.06-1.41c0-.24,0-.47.07-.71s0-.23,0-.35l.06-.35.31.12-.14.21a2.43,2.43,0,0,0-.14.2l-.3.39-.63.76A18.49,18.49,0,0,1,51.4,15.1a13.21,13.21,0,0,1-1.55,1.22,10.53,10.53,0,0,1-1.74,1,7.94,7.94,0,0,1-1.92.54,6.77,6.77,0,0,1-2,0,6.64,6.64,0,0,1-1-.23l-.12,0-.12,0-.24-.08-.23-.09-.23-.1a8.28,8.28,0,0,1-1.73-1l-.1-.07-.1-.08-.19-.16,0,0-.05,0L40,15.76l-.18-.17-.18-.18-.09-.09,0,0,0,0L39.25,15,39.17,15l-.08-.1A10.88,10.88,0,0,1,38,13.2a16.15,16.15,0,0,1-.85-1.78q-.36-.91-.66-1.86l-.15-.47c0-.15-.09-.31-.13-.47l-.07-.24-.06-.23-.13-.48L35.8,7.2l0-.24-.06-.24-.11-.48-.1-.48C35.2,4.49,35,3.2,34.76,1.92h.48C35,3.2,34.8,4.49,34.52,5.76l-.1.48-.11.48L34.25,7l0,.24-.12.47L34,8.15l-.06.23-.07.24c0,.16-.09.32-.13.47l-.15.47q-.3.94-.66,1.86A14.58,14.58,0,0,1,32,13.2a10.82,10.82,0,0,1-1.11,1.65l-.08.1-.08.09-.17.19,0,0,0,0-.09.09-.18.18-.18.17-.09.08-.05.05-.05,0-.19.16-.1.08-.1.07a8.55,8.55,0,0,1-1.73,1l-.23.1-.23.09-.24.08-.12,0-.12,0a6.64,6.64,0,0,1-1,.23,6.77,6.77,0,0,1-2,0,7.54,7.54,0,0,1-1.92-.55,10.48,10.48,0,0,1-1.74-.95A13.21,13.21,0,0,1,18.6,15.1c-.49-.45-1-.92-1.39-1.41l-.63-.76-.29-.39-.15-.2L16,12.13l.31-.12.06.35c0,.12,0,.23,0,.35s.05.47.07.71a13.29,13.29,0,0,1,.05,1.41,13.5,13.5,0,0,1-.07,1.42,9.5,9.5,0,0,1-.23,1.4A8,8,0,0,1,15.76,19a4.78,4.78,0,0,1-.8,1.19A3.59,3.59,0,0,1,13.8,21a4.23,4.23,0,0,1-.68.24,4.39,4.39,0,0,1-.71.12l-.18,0h-.71l-.18,0-.35,0-.35-.06-.35-.07-.17-.05L10,21.13,9.61,21,9.44,21l-.16-.06L9,20.79l-.33-.14L8.3,20.5c-.21-.1-.42-.2-.63-.32l-.61-.34c-.4-.24-.8-.5-1.18-.77s-.76-.54-1.13-.84-.72-.59-1.07-.9S3,16.7,2.66,16.37Z"/><circle class="cls-7" cx="3.33" cy="17.34" r="3.33"/><circle class="cls-8" cx="15.63" cy="10.95" r="3.33"/><circle class="cls-9" cx="35" cy="3.33" r="3.33"/><circle class="cls-10" cx="66.67" cy="17.34" r="3.33"/><circle class="cls-11" cx="54.37" cy="10.95" r="3.33"/></g></g></svg>